<?xml version="1.0" encoding="UTF-8"?>
<svg xmlns="http://www.w3.org/2000/svg" width="256" height="256" viewBox="0 0 256 256" role="img" aria-label="Job Finder">
  <defs>
    <linearGradient id="g" x1="0" y1="0" x2="1" y2="1">
      <stop offset="0" stop-color="#f59e0b"/>
      <stop offset="0.55" stop-color="#0f766e"/>
      <stop offset="1" stop-color="#0891b2"/>
    </linearGradient>
    <filter id="s" x="-20%" y="-20%" width="140%" height="140%">
      <feDropShadow dx="0" dy="10" stdDeviation="10" flood-color="#06142d" flood-opacity="0.35"/>
    </filter>
  </defs>

  <rect x="20" y="20" width="216" height="216" rx="56" fill="url(#g)" filter="url(#s)"/>

  <!-- simple briefcase mark -->
  <g fill="#ffffff">
    <path d="M94 92c0-10.5 8.5-19 19-19h30c10.5 0 19 8.5 19 19v10h14c8.8 0 16 7.2 16 16v44c0 11-9 20-20 20H75c-11 0-20-9-20-20v-44c0-8.8 7.2-16 16-16h23V92zm19 0v10h30V92a4 4 0 0 0-4-4h-22a4 4 0 0 0-4 4z"/>
    <path d="M94 140h68v10c0 6.6-5.4 12-12 12h-44c-6.6 0-12-5.4-12-12v-10z" opacity="0.9"/>
  </g>
</svg>
